# xmcd CD database file
#
# Track frame offsets:
#	150
#	21402
#	39325
#	48987
#	80240
#
# Disc length: 1382 seconds
#
# Revision: 0
# Processed by: cddbd v1.5PL3 Copyright (c) Steve Scherf et al.
# Submitted via: CDex 1.50beta8
#
DISCID=3a056405
DTITLE=レピッシュ - Times
DYEAR=1991
DGENRE=Rock
TTITLE0=Mr.CLOCK
TTITLE1=ジャケット・ブギ
TTITLE2=野生の王国
TTITLE3=目覚まし時計（アコースティックバージョン）
TTITLE4=JACKの憂鬱
EXTD=YEAR: 1991
EXTT0=
EXTT1=
EXTT2=
EXTT3=
EXTT4=
PLAYORDER=
